<?xml version="1.0" standalone="no"?>
<!DOCTYPE svg PUBLIC "-//W3C//DTD SVG 20010904//EN"
 "http://www.w3.org/TR/2001/REC-SVG-20010904/DTD/svg10.dtd">
<svg version="1.0" xmlns="http://www.w3.org/2000/svg"
 width="337.000000pt" height="345.000000pt" viewBox="0 0 337.000000 345.000000"
 preserveAspectRatio="xMidYMid meet">

<g transform="translate(0.000000,345.000000) scale(0.100000,-0.100000)"
fill="#000000" stroke="none">
<path d="M805 3346 c-138 -31 -269 -118 -361 -240 -204 -268 -167 -677 81
-904 l57 -52 -56 -51 c-75 -69 -143 -174 -179 -278 -25 -70 -30 -103 -31 -178
-1 -88 0 -94 26 -120 38 -38 97 -38 134 -2 21 21 27 41 35 103 10 83 39 170
75 227 31 50 116 124 177 153 61 30 111 33 187 14 58 -15 55 -19 -20 -33 -50
-10 -147 -60 -197 -101 -96 -79 -178 -234 -190 -361 l-6 -63 512 0 511 0 0 21
c0 12 -4 49 -10 83 -5 33 -14 96 -20 139 -5 43 -22 109 -36 145 -29 73 -98
183 -138 221 l-25 24 51 46 c65 58 120 143 149 229 18 52 23 90 24 172 1 355
-108 601 -325 730 -129 77 -294 106 -425 76z m199 -211 c92 -19 107 -35 36
-35 -222 -1 -423 -169 -485 -405 -8 -33 -15 -77 -16 -100 l-1 -40 -13 40 c-29
89 -14 220 38 320 72 137 196 217 362 234 6 0 41 -6 79 -14z m533 -547 c-3 -8
-6 -5 -6 6 -1 11 2 17 5 13 3 -3 4 -12 1 -19z m-166 -1065 c13 -16 12 -17 -3
-4 -10 7 -18 15 -18 17 0 8 8 3 21 -13z"/>
<path d="M2117 3350 c-133 -23 -266 -95 -350 -191 -62 -71 -123 -177 -149
-261 -18 -59 -23 -96 -22 -188 0 -142 13 -199 72 -320 37 -76 61 -109 120
-168 l73 -73 -68 -68 c-37 -37 -85 -96 -106 -132 -75 -128 -118 -330 -83 -396
34 -67 95 -82 147 -35 29 26 33 38 45 123 26 173 111 298 252 365 50 24 69 28
157 28 93 1 105 -1 168 -31 82 -39 160 -115 200 -197 26 -50 34 -87 53 -223 7
-46 42 -83 86 -90 33 -5 41 -2 73 30 33 33 35 38 35 105 0 83 -36 218 -83 307
-18 35 -64 93 -109 138 l-78 79 56 51 c217 198 277 534 144 802 -125 252 -375
388 -633 345z m208 -225 c130 -36 251 -170 284 -316 13 -56 13 -162 0 -218
-27 -120 -124 -242 -234 -296 -54 -26 -70 -29 -165 -30 -94 0 -111 3 -162 27
-63 29 -148 103 -183 158 -144 229 -62 543 172 652 101 48 175 53 288 23z"/>
<path d="M2936 1444 c-3 -9 -6 -40 -6 -69 0 -49 3 -55 28 -67 l27 -13 3 -318
2 -317 -29 0 c-26 0 -31 -4 -36 -33 -4 -18 -5 -50 -3 -71 3 -38 4 -39 93 -77
49 -21 93 -35 97 -31 5 5 12 28 17 53 l9 44 1 -62 1 -62 87 -65 c99 -74 101
-74 102 23 1 51 -1 56 -43 95 -33 32 -51 60 -76 125 -30 80 -31 86 -14 98 23
17 34 16 56 -4 27 -24 38 -4 38 69 0 48 -4 61 -25 81 -45 41 -135 91 -146 80
-5 -5 -13 -38 -17 -73 -4 -36 -12 -65 -19 -67 -10 -4 -13 66 -15 314 l-3 318
-45 22 c-54 27 -76 28 -84 7z m174 -834 c0 -5 -4 -10 -10 -10 -5 0 -10 5 -10
10 0 6 5 10 10 10 6 0 10 -4 10 -10z"/>
<path d="M1775 1314 c-60 -22 -68 -35 -69 -106 -1 -63 1 -66 37 -53 16 7 17
-12 17 -316 l0 -324 -30 -25 c-26 -21 -32 -35 -37 -81 -4 -37 -2 -59 6 -63 16
-10 102 23 123 46 13 15 25 18 47 13 58 -12 139 40 186 120 30 51 65 177 65
234 0 135 -90 222 -181 175 -19 -9 -49 -33 -66 -52 l-33 -36 0 242 c0 187 -3
242 -12 241 -7 0 -31 -7 -53 -15z m232 -546 c28 -32 37 -90 19 -125 -24 -48
-63 -77 -101 -77 -42 0 -64 19 -74 65 -11 49 4 93 44 128 43 37 83 40 112 9z"/>
<path d="M70 1166 c0 -53 4 -77 15 -86 22 -19 22 -568 0 -576 -12 -5 -15 -24
-15 -83 l0 -77 63 -45 c85 -62 118 -82 124 -75 3 3 8 34 10 70 l6 65 -47 32
-46 33 0 104 c0 57 4 102 8 100 4 -1 50 -24 102 -50 52 -26 107 -50 121 -53
23 -6 27 -3 33 26 3 17 6 49 6 69 l0 38 -105 51 c-58 27 -119 60 -135 71 -30
21 -30 22 -30 122 0 55 3 98 8 96 4 -1 53 -25 109 -53 l102 -50 3 -45 c3 -39
7 -46 31 -54 40 -15 47 2 47 122 l0 102 -27 12 c-95 38 -219 103 -291 151 -45
32 -85 57 -87 57 -3 0 -5 -33 -5 -74z"/>
<path d="M2670 1073 c-26 -9 -71 -56 -90 -94 -11 -20 -27 -74 -36 -120 -16
-78 -16 -88 -1 -140 22 -73 54 -119 102 -146 127 -72 245 41 245 233 0 81 -24
154 -68 205 -48 56 -105 79 -152 62z m67 -163 c36 -22 58 -58 66 -112 17 -109
-132 -120 -173 -13 -22 58 -3 116 44 135 29 12 27 12 63 -10z"/>
<path d="M2322 1052 c-125 -37 -217 -310 -149 -442 30 -60 67 -85 123 -84 93
2 167 88 200 232 19 85 14 145 -17 209 -32 66 -98 102 -157 85z m58 -172 c51
-51 53 -119 6 -166 -57 -57 -124 -40 -147 35 -15 51 -5 87 33 123 36 34 79 37
108 8z"/>
<path d="M1512 772 c-38 -12 -91 -61 -120 -113 -28 -49 -29 -49 -40 -25 -39
87 -141 62 -213 -52 l-27 -43 -7 42 -7 42 -55 -6 c-30 -3 -57 -8 -60 -11 -3
-3 -8 -37 -11 -77 l-5 -71 29 4 29 3 3 -98 c3 -96 2 -97 -23 -107 -31 -12 -45
-46 -45 -111 0 -43 3 -50 18 -46 9 3 46 11 82 17 90 18 98 23 105 74 9 56 0
84 -28 88 -20 3 -22 10 -25 71 -3 75 15 120 63 151 67 44 105 7 105 -101 0
-70 -1 -73 -29 -87 -19 -10 -30 -26 -35 -47 -7 -36 -8 -109 -2 -109 19 0 174
55 185 65 8 8 14 37 15 72 1 56 0 58 -26 61 -27 3 -28 5 -28 68 0 75 14 108
65 153 70 61 108 29 103 -90 -3 -66 -6 -75 -26 -84 -25 -11 -42 -58 -42 -117
0 -24 5 -38 13 -38 6 0 50 15 97 33 92 36 97 43 99 124 1 38 -1 42 -26 45
l-28 3 -5 135 c-3 74 -9 142 -13 151 -7 13 -52 42 -60 38 -1 -1 -12 -4 -25 -7z"/>
<path d="M625 590 c-50 -25 -80 -68 -100 -145 -21 -81 -19 -154 6 -220 47
-126 141 -177 227 -125 26 16 32 17 32 5 0 -12 13 -15 58 -15 32 0 63 5 70 12
7 7 12 39 12 74 0 61 -1 63 -27 66 l-28 3 -3 173 -2 172 -27 0 c-14 0 -31 -7
-37 -15 -10 -13 -17 -12 -60 10 -60 30 -70 31 -121 5z m118 -167 c56 -59 50
-157 -11 -182 -64 -27 -141 44 -142 132 0 71 100 104 153 50z"/>
</g>
</svg>
